
<svg width="238" height="251" viewBox="0 0 238 251" fill="none" xmlns="http://www.w3.org/2000/svg">
<g clip-path="url(#clip0)">
<path d="M109.982 222.4C43.5783 129.431 31.2526 119.89 31.2526 85.7222C31.2526 38.9201 70.5383 0.979736 119 0.979736C167.462 0.979736 206.748 38.9201 206.748 85.7222C206.748 119.89 194.422 129.431 128.018 222.4C123.66 228.48 114.339 228.479 109.982 222.4ZM119 121.032C139.192 121.032 155.561 105.223 155.561 85.7222C155.561 66.2213 139.192 50.4128 119 50.4128C98.8076 50.4128 82.4386 66.2213 82.4386 85.7222C82.4386 105.223 98.8076 121.032 119 121.032Z" fill="black"/>
</g>
<g clip-path="url(#clip1)">
<path d="M133.875 204.366V206.009C133.875 207.074 137.26 207.997 142.096 208.283C178.13 210.418 204.531 217.428 204.531 225.758C204.531 235.785 166.277 243.901 119 243.901C71.7305 243.901 33.4687 235.786 33.4687 225.758C33.4687 217.429 59.8653 210.419 95.9028 208.283C100.74 207.997 104.125 207.074 104.125 206.009V204.367C104.125 202.818 97.2295 201.69 90.1583 202.076C40.2568 204.803 3.43704 214.439 3.72013 225.889C4.05481 239.403 55.5395 250.24 119.248 250.211C182.802 250.183 234.281 239.245 234.281 225.758C234.281 214.356 197.493 204.777 147.722 202.07C140.698 201.688 133.875 202.828 133.875 204.366Z" fill="black"/>
</g>
<defs>
<clipPath id="clip0">
<rect width="175.495" height="225.98" fill="white" transform="translate(31.2526 0.979736)"/>
</clipPath>
<clipPath id="clip1">
<rect width="238" height="50.4848" fill="white" transform="translate(0 200.515)"/>
</clipPath>
</defs>
</svg>
