<svg width="1063" height="288" viewBox="0 0 1063 288" fill="none" xmlns="http://www.w3.org/2000/svg">
<g clip-path="url(#clip0)">
<path d="M893.843 237.922C893.832 139.449 890.189 126.677 906.314 102.296C928.402 68.899 972.272 60.8361 1004.3 84.2866C1036.33 107.737 1044.39 153.82 1022.3 187.217C1006.18 211.598 993.527 212.442 905.764 246.649C900.014 248.879 893.854 244.368 893.843 237.922ZM947.644 169.952C960.989 179.723 979.268 176.363 988.471 162.448C997.675 148.533 994.317 129.332 980.971 119.561C967.626 109.79 949.347 113.149 940.144 127.064C930.94 140.98 934.298 160.181 947.644 169.952Z" fill="black"/>
</g>
<path d="M77.3846 69.7091C95.0523 69.7091 109.717 76.7729 121.377 90.9006C133.215 105.028 139.133 122.316 139.133 142.764V191.839C139.133 196.115 138.957 199.368 138.603 201.599C138.427 203.643 137.631 206.06 136.218 208.848C133.921 213.682 127.119 216.098 115.812 216.098C105.035 216.098 98.3208 213.682 95.6707 208.848C94.2573 206.06 93.3739 203.551 93.0205 201.32C92.8438 199.089 92.7555 195.743 92.7555 191.282V142.485C92.7555 134.864 90.7237 128.915 86.6601 124.64C82.5966 120.364 77.3846 118.227 71.0242 118.227C64.8405 118.227 59.3635 120.271 54.5932 124.361C49.823 128.265 47.0845 132.726 46.3777 137.745V191.839C46.3777 196.115 46.2011 199.368 45.8477 201.599C45.671 203.643 44.876 206.06 43.4626 208.848C41.1658 213.682 34.3637 216.098 23.0564 216.098C11.9257 216.098 5.12364 213.589 2.65016 208.57C1.41342 205.781 0.61837 203.365 0.265015 201.32C0.0883384 199.275 0 196.022 0 191.561V24.8164C0 20.5409 0.0883384 17.3808 0.265015 15.336C0.61837 13.1053 1.41342 10.6887 2.65016 8.08625C5.12364 3.06719 12.014 0.557665 23.3214 0.557665C34.452 0.557665 41.1658 3.06719 43.4626 8.08625C44.876 10.8746 45.671 13.3841 45.8477 15.6148C46.2011 17.6596 46.3777 20.8198 46.3777 25.0953V86.7181C55.2116 75.3788 65.5472 69.7091 77.3846 69.7091Z" fill="black"/>
<path d="M251.094 84.7662C252.154 74.3564 259.133 69.1514 272.03 69.1514C278.921 69.1514 284.044 69.7091 287.401 70.8244C290.758 71.9398 293.055 73.8916 294.292 76.68C295.705 79.4684 296.5 81.9779 296.677 84.2086C297.03 86.2534 297.207 89.4135 297.207 93.689V191.282C297.207 195.557 297.03 198.81 296.677 201.041C296.5 203.086 295.793 205.502 294.557 208.291C292.083 213.124 285.988 215.54 276.271 215.54C266.73 215.54 260.281 214.332 256.924 211.916C253.744 209.313 251.889 205.595 251.359 200.762C244.822 210.614 233.868 215.54 218.497 215.54C203.303 215.54 189.169 208.198 176.095 193.512C163.021 178.827 156.483 161.818 156.483 142.485C156.483 122.967 163.021 105.958 176.095 91.4583C189.345 76.7729 203.833 69.4302 219.557 69.4302C225.564 69.4302 231.041 70.5456 235.988 72.7763C240.935 75.007 244.38 77.1447 246.324 79.1895C248.267 81.0484 249.857 82.9073 251.094 84.7662ZM202.861 142.764C202.861 148.899 205.158 154.475 209.752 159.494C214.345 164.328 219.911 166.744 226.448 166.744C232.985 166.744 238.373 164.235 242.614 159.216C247.031 154.196 249.239 148.713 249.239 142.764C249.239 136.63 247.119 130.96 242.879 125.755C238.815 120.55 233.25 117.948 226.183 117.948C219.292 117.948 213.639 120.55 209.222 125.755C204.981 130.96 202.861 136.63 202.861 142.764Z" fill="black"/>
<path d="M362.057 142.764C362.057 150.572 364.53 156.706 369.477 161.167C374.424 165.443 379.636 167.581 385.113 167.581C390.767 167.581 395.979 165.908 400.749 162.562C405.696 159.03 409.671 157.264 412.675 157.264C417.975 157.264 424.424 162.19 432.021 172.042C436.085 177.433 438.117 182.266 438.117 186.541C438.117 193.605 433.258 200.204 423.541 206.339C413.47 213.775 401.103 217.492 386.438 217.492C370.007 217.492 354.195 211.265 339.001 198.81C331.757 192.862 325.838 184.961 321.245 175.109C316.651 165.071 314.354 154.104 314.354 142.207C314.354 130.124 316.651 119.249 321.245 109.583C325.838 99.7305 331.757 91.8301 339.001 85.8816C353.665 73.6128 369.301 67.4784 385.908 67.4784C392.622 67.4784 399.159 68.5008 405.52 70.5456C411.88 72.4045 416.562 74.2634 419.565 76.1223L423.806 78.9107C426.986 81.1414 429.459 82.9073 431.226 84.2086C435.82 87.9264 438.117 92.2019 438.117 97.035C438.117 101.682 436.261 106.98 432.551 112.929C426.191 123.153 420.095 128.265 414.265 128.265C410.908 128.265 406.138 126.22 399.954 122.13C396.774 118.97 392.18 117.39 386.173 117.39C380.343 117.39 374.866 119.621 369.742 124.082C364.619 128.544 362.057 134.771 362.057 142.764Z" fill="black"/>
<path d="M537.392 142.485L572.639 173.157C577.056 177.061 579.794 180.035 580.854 182.08C582.091 184.125 582.709 186.077 582.709 187.936C582.709 192.397 579.971 198.439 574.494 206.06C568.487 213.867 563.187 217.771 558.593 217.771C554.706 217.771 549.318 215.076 542.427 209.685L539.777 207.733C535.713 204.201 529.441 198.067 520.961 189.33C512.48 180.407 506.032 174.087 501.615 170.369V191.839C501.615 196.115 501.438 199.368 501.085 201.599C500.908 203.643 500.113 206.06 498.7 208.848C496.403 213.682 489.601 216.098 478.293 216.098C467.163 216.098 460.361 213.589 457.887 208.57C456.65 205.781 455.855 203.365 455.502 201.32C455.325 199.089 455.237 195.836 455.237 191.561V24.5376C455.237 20.2621 455.325 17.102 455.502 15.0572C455.855 12.8265 456.65 10.3169 457.887 7.52858C460.361 2.50953 467.251 0 478.558 0C487.039 0 493.046 1.58007 496.579 4.74022C499.583 7.3427 501.173 11.4323 501.35 17.009C501.526 18.682 501.615 21.2845 501.615 24.8164V113.208C504.795 110.419 509.565 105.679 515.926 98.9869C522.463 92.2948 527.321 87.5546 530.501 84.7662L533.682 82.5356C539.865 77.5165 545.166 75.007 549.583 75.007C553.999 75.007 559.035 78.8177 564.688 86.4393C570.519 93.8749 573.434 99.7305 573.434 104.006C573.434 108.281 570.165 113.3 563.628 119.063L537.392 142.485Z" fill="black"/>
<path d="M670.392 118.505L653.166 117.39V155.87C653.166 160.889 653.873 164.513 655.287 166.744C656.877 168.975 659.703 170.09 663.767 170.09C668.007 170.09 671.188 170.276 673.308 170.648C675.604 170.834 677.99 171.67 680.463 173.157C684.527 175.574 686.558 181.801 686.558 191.839C686.558 203.551 684.085 210.707 679.138 213.31C676.488 214.611 674.103 215.448 671.983 215.819C670.039 216.005 667.124 216.098 663.237 216.098C644.863 216.098 630.905 211.73 621.365 202.993C611.824 194.256 607.054 179.478 607.054 158.658V117.39C603.697 117.948 600.075 118.227 596.188 118.227C592.301 118.227 589.033 116.647 586.382 113.486C583.909 110.326 582.672 104.935 582.672 97.3139C582.672 89.6924 583.114 84.2086 583.997 80.8625C584.881 77.3306 586.117 74.8211 587.708 73.334C590.534 70.9174 594.068 69.7091 598.308 69.7091L607.054 70.8244V42.1043C607.054 37.8288 607.142 34.6687 607.319 32.6238C607.672 30.5791 608.555 28.3484 609.969 25.9318C612.266 21.2845 619.068 18.9609 630.375 18.9609C642.389 18.9609 649.545 22.3999 651.841 29.2778C652.725 32.2521 653.166 36.9923 653.166 43.4985V70.8244C660.94 70.0809 666.771 69.7091 670.657 69.7091C674.721 69.7091 677.725 69.895 679.668 70.2668C681.788 70.4527 684.173 71.2892 686.823 72.7763C691.417 75.1929 693.714 82.3497 693.714 94.2467C693.714 105.958 691.329 113.115 686.558 115.717C683.908 117.018 681.523 117.855 679.403 118.227C677.46 118.412 674.456 118.505 670.392 118.505Z" fill="black"/>
<path d="M803.223 70.8244C806.58 71.9398 809.319 73.8916 811.439 76.68C813.736 79.2825 814.884 83.558 814.884 89.5065C814.884 95.455 813.206 101.961 809.849 109.025C806.492 116.089 801.633 119.621 795.273 119.621C792.093 119.621 789.001 118.877 785.997 117.39C783.17 115.903 779.372 115.159 774.602 115.159C769.831 115.159 765.326 116.925 761.086 120.457C757.022 123.989 754.99 128.265 754.99 133.284V191.839C754.99 196.115 754.814 199.368 754.46 201.599C754.284 203.643 753.489 206.06 752.075 208.848C749.425 213.682 742.535 216.098 731.404 216.098C722.923 216.098 716.828 214.518 713.118 211.358C710.291 208.755 708.701 204.759 708.348 199.368C708.348 197.509 708.348 194.814 708.348 191.282V93.4102C708.348 89.1347 708.436 85.9745 708.613 83.9297C708.966 81.699 709.761 79.2825 710.998 76.68C713.471 71.6609 720.362 69.1514 731.669 69.1514C742.27 69.1514 748.895 71.2892 751.545 75.5647C753.489 78.5389 754.46 81.6061 754.46 84.7662C755.344 83.465 756.581 81.8849 758.171 80.026C759.937 78.1671 763.559 75.6576 769.036 72.4974C774.513 69.3373 779.284 67.7572 783.347 67.7572C787.587 67.7572 791.121 68.0361 793.948 68.5937C796.775 68.9655 799.866 69.7091 803.223 70.8244Z" fill="black"/>
<path d="M829.468 93.689C829.468 89.4135 829.556 86.2534 829.733 84.2086C830.087 81.9779 830.882 79.4684 832.118 76.68C834.592 71.8468 841.482 69.4302 852.789 69.4302C861.27 69.4302 867.277 71.0103 870.811 74.1705C873.814 76.7729 875.404 80.7696 875.581 86.1604C875.758 88.0193 875.846 90.7148 875.846 94.2467V191.839C875.846 196.115 875.669 199.368 875.316 201.599C875.139 203.643 874.344 206.06 872.931 208.848C870.634 213.682 863.832 216.098 852.524 216.098C841.394 216.098 834.592 213.589 832.118 208.57C830.882 205.781 830.087 203.365 829.733 201.32C829.556 199.275 829.468 196.022 829.468 191.561V93.689ZM872.931 42.1043C871.694 44.7068 869.397 46.5657 866.04 47.681C862.683 48.7964 858.178 49.354 852.524 49.354C847.047 49.354 842.631 48.7964 839.274 47.681C835.917 46.5657 833.532 44.6138 832.118 41.8255C830.882 39.0371 830.087 36.6205 829.733 34.5757C829.556 32.345 829.468 29.0919 829.468 24.8164C829.468 20.5409 829.556 17.3808 829.733 15.336C830.087 13.1053 830.882 10.6887 832.118 8.08625C834.592 3.06719 841.482 0.557665 852.789 0.557665C863.92 0.557665 870.634 3.06719 872.931 8.08625C874.344 10.8746 875.139 13.3841 875.316 15.6148C875.669 17.6596 875.846 20.8198 875.846 25.0953C875.846 29.3708 875.669 32.6238 875.316 34.8545C875.139 36.8993 874.344 39.3159 872.931 42.1043Z" fill="black"/>
<defs>
<clipPath id="clip0">
<rect width="143.752" height="193.33" fill="white" transform="matrix(0.806856 0.590748 -0.551644 0.83408 946.307 41.8259)"/>
</clipPath>
</defs>
</svg>
